<?xml version="1.0" standalone="no"?><!DOCTYPE svg PUBLIC "-//W3C//DTD SVG 1.1//EN" "http://www.w3.org/Graphics/SVG/1.1/DTD/svg11.dtd"><svg t="1595907387973" class="icon" viewBox="0 0 1024 1024" version="1.1" xmlns="http://www.w3.org/2000/svg" p-id="2121" xmlns:xlink="http://www.w3.org/1999/xlink" width="600" height="600"><defs><style type="text/css"></style></defs><path d="M512.064 824.192c-208.192 0-376.896-57.984-376.896-129.472L134.784 694.72l0 203.008L135.04 897.728C140.16 967.744 306.752 1024 511.68 1024c204.992 0 371.584-56.256 376.64-126.272l0.832 0 0-203.008-0.32 0C888.96 766.208 720.192 824.192 512.064 824.192z" p-id="2122"></path><path d="M512.064 545.152c-208.192 0-376.896-57.984-376.896-129.472L134.784 415.68l0 203.008L135.04 618.688c5.056 70.016 171.712 126.272 376.64 126.272 204.992 0 371.584-56.256 376.64-126.272l0.832 0L889.152 415.616l-0.32 0C888.96 487.104 720.192 545.152 512.064 545.152z" p-id="2123"></path><path d="M888.96 128.832c0 0.128-0.064 0.192-0.064 0.32C888.384 57.728 719.872 0 512.064 0S135.616 57.728 135.168 129.152c0-0.128-0.064-0.192-0.064-0.32L134.784 128.832l0 203.008L135.04 331.84C140.16 401.92 306.752 458.112 511.68 458.112c204.992 0 371.584-56.256 376.64-126.272l0.832 0L889.152 128.832 888.96 128.832zM512.064 219.456c-155.264 0-281.152-43.264-281.152-96.576s125.888-96.576 281.152-96.576c155.2 0 281.088 43.264 281.088 96.576C793.152 176.192 667.264 219.456 512.064 219.456z" p-id="2124"></path></svg>